<?xml version="1.0" encoding="UTF-8" standalone="no"?>
<!-- Generator: Adobe Illustrator 19.0.0, SVG Export Plug-In . SVG Version: 6.00 Build 0)  -->

<svg
   xmlns:dc="http://purl.org/dc/elements/1.1/"
   xmlns:cc="http://creativecommons.org/ns#"
   xmlns:rdf="http://www.w3.org/1999/02/22-rdf-syntax-ns#"
   xmlns:svg="http://www.w3.org/2000/svg"
   xmlns="http://www.w3.org/2000/svg"
   xmlns:sodipodi="http://sodipodi.sourceforge.net/DTD/sodipodi-0.dtd"
   xmlns:inkscape="http://www.inkscape.org/namespaces/inkscape"
   version="1.1"
   id="Capa_1"
   x="0px"
   y="0px"
   viewBox="0 0 512 512"
   style="enable-background:new 0 0 512 512;"
   xml:space="preserve"
   sodipodi:docname="Follow-Grey.svg"
   inkscape:version="0.92.3 (2405546, 2018-03-11)"><metadata
   id="metadata47"><rdf:RDF><cc:Work
       rdf:about=""><dc:format>image/svg+xml</dc:format><dc:type
         rdf:resource="http://purl.org/dc/dcmitype/StillImage" /><dc:title></dc:title></cc:Work></rdf:RDF></metadata><defs
   id="defs45" /><sodipodi:namedview
   pagecolor="#ffffff"
   bordercolor="#666666"
   borderopacity="1"
   objecttolerance="10"
   gridtolerance="10"
   guidetolerance="10"
   inkscape:pageopacity="0"
   inkscape:pageshadow="2"
   inkscape:window-width="1920"
   inkscape:window-height="1009"
   id="namedview43"
   showgrid="false"
   inkscape:zoom="0.4609375"
   inkscape:cx="15.186441"
   inkscape:cy="256"
   inkscape:window-x="0"
   inkscape:window-y="0"
   inkscape:window-maximized="1"
   inkscape:current-layer="g10" />
<g
   id="g10">
	<g
   id="g8"
   style="fill:#c0c0c0;fill-opacity:1">
		<g
   id="g6"
   style="fill:#c0c0c0;fill-opacity:1">
			<path
   d="M492,127.5h-18v-18c0-11.046-8.954-20-20-20c-11.046,0-20,8.954-20,20v18h-18c-11.046,0-20,8.954-20,20s8.954,20,20,20     h18v18c0,11.046,8.954,20,20,20c11.046,0,20-8.954,20-20v-18h18c11.046,0,20-8.954,20-20S503.046,127.5,492,127.5z"
   id="path2"
   style="fill:#c0c0c0;fill-opacity:1" />
			<path
   d="M315.409,249.231C345.854,225.711,365.5,188.86,365.5,147.5C365.5,76.645,307.855,19,237,19S108.5,76.645,108.5,147.5     c0,41.359,19.646,78.211,50.091,101.731C68.293,280.793,0,367.427,0,473c0,11.046,8.954,20,20,20h434c11.046,0,20-8.954,20-20     C474,367.401,405.656,280.775,315.409,249.231z M148.5,147.5c0-48.799,39.701-88.5,88.5-88.5s88.5,39.701,88.5,88.5     S285.799,236,237,236S148.5,196.299,148.5,147.5z M41.008,453C51.061,353.73,135.123,276,237,276s185.939,77.73,195.992,177     H41.008z"
   id="path4"
   style="fill:#c0c0c0;fill-opacity:1" />
		</g>
	</g>
</g>
<g
   id="g12">
</g>
<g
   id="g14">
</g>
<g
   id="g16">
</g>
<g
   id="g18">
</g>
<g
   id="g20">
</g>
<g
   id="g22">
</g>
<g
   id="g24">
</g>
<g
   id="g26">
</g>
<g
   id="g28">
</g>
<g
   id="g30">
</g>
<g
   id="g32">
</g>
<g
   id="g34">
</g>
<g
   id="g36">
</g>
<g
   id="g38">
</g>
<g
   id="g40">
</g>
</svg>