<?xml version="1.0" encoding="UTF-8" standalone="no"?>
<!-- Generator: Adobe Illustrator 19.0.0, SVG Export Plug-In . SVG Version: 6.00 Build 0)  -->

<svg
   xmlns:dc="http://purl.org/dc/elements/1.1/"
   xmlns:cc="http://creativecommons.org/ns#"
   xmlns:rdf="http://www.w3.org/1999/02/22-rdf-syntax-ns#"
   xmlns:svg="http://www.w3.org/2000/svg"
   xmlns="http://www.w3.org/2000/svg"
   xmlns:sodipodi="http://sodipodi.sourceforge.net/DTD/sodipodi-0.dtd"
   xmlns:inkscape="http://www.inkscape.org/namespaces/inkscape"
   version="1.1"
   id="Capa_1"
   x="0px"
   y="0px"
   viewBox="0 0 480.003 480.003"
   style="enable-background:new 0 0 480.003 480.003;"
   xml:space="preserve"
   sodipodi:docname="Light-bulb-Grey.svg"
   inkscape:version="0.92.3 (2405546, 2018-03-11)"><metadata
   id="metadata63"><rdf:RDF><cc:Work
       rdf:about=""><dc:format>image/svg+xml</dc:format><dc:type
         rdf:resource="http://purl.org/dc/dcmitype/StillImage" /><dc:title></dc:title></cc:Work></rdf:RDF></metadata><defs
   id="defs61" /><sodipodi:namedview
   pagecolor="#ffffff"
   bordercolor="#666666"
   borderopacity="1"
   objecttolerance="10"
   gridtolerance="10"
   guidetolerance="10"
   inkscape:pageopacity="0"
   inkscape:pageshadow="2"
   inkscape:window-width="1680"
   inkscape:window-height="1022"
   id="namedview59"
   showgrid="false"
   inkscape:zoom="0.4916636"
   inkscape:cx="26.440843"
   inkscape:cy="240.0015"
   inkscape:window-x="0"
   inkscape:window-y="30"
   inkscape:window-maximized="1"
   inkscape:current-layer="Capa_1" />
<g
   id="g26"
   transform="rotate(180,240.001,240.00179)"
   style="fill:#c0c0c0;fill-opacity:1">
	<g
   id="g24"
   style="fill:#c0c0c0;fill-opacity:1">
		<g
   id="g22"
   style="fill:#c0c0c0;fill-opacity:1">
			<path
   d="m 140.935,369.074 c 3.335,4.073 6.919,7.937 10.731,11.569 h 0.024 c 23.716,22.776 55.35,35.454 88.232,35.36 2.088,0 4.192,-0.048 6.296,-0.152 67.558,-4.017 120.628,-59.38 121.784,-127.048 0.328,-38.926 -17.176,-75.862 -47.512,-100.256 -5.491,-4.65 -8.607,-11.518 -8.488,-18.712 v -17.832 c -0.042,-10.134 -6.445,-19.15 -16,-22.528 v -9.472 c -0.021,-5.923 -2.245,-11.627 -6.24,-16 8.32,-9.044 8.32,-22.956 0,-32 8.87,-9.677 8.215,-24.712 -1.461,-33.581 -2.566,-2.352 -5.618,-4.112 -8.939,-5.155 -3.652,-21.716 -24.216,-36.36 -45.932,-32.708 -16.759,2.818 -29.89,15.949 -32.708,32.708 -12.534,3.899 -19.535,17.22 -15.636,29.755 1.038,3.336 2.798,6.403 5.156,8.981 -8.32,9.044 -8.32,22.956 0,32 -3.995,4.373 -6.219,10.077 -6.24,16 v 9.472 c -9.555,3.378 -15.958,12.394 -16,22.528 v 18.76 c -0.142,7.161 -3.497,13.879 -9.136,18.296 -54.662,44.758 -62.69,125.354 -17.931,180.015 z M 240.001,16.003 c 10.168,0.012 19.229,6.418 22.632,16 h -45.264 c 3.403,-9.582 12.464,-15.988 22.632,-16 z m -32,32 h 64 c 4.418,0 8,3.582 8,8 0,4.418 -3.582,8 -8,8 h -64 c -4.418,0 -8,-3.582 -8,-8 0,-4.418 3.582,-8 8,-8 z m 0,32 h 64 c 4.418,0 8,3.582 8,8 0,4.418 -3.582,8 -8,8 h -64 c -4.418,0 -8,-3.582 -8,-8 0,-4.418 3.582,-8 8,-8 z m -8,40 c 0,-4.418 3.582,-8 8,-8 h 64 c 4.418,0 8,3.582 8,8 v 8 h -80 z m -31,81.48 v -0.04 c 9.36,-7.45 14.869,-18.718 15,-30.68 v -18.76 c 0,-4.418 3.582,-8 8,-8 h 96 c 4.418,0 8,3.582 8,8 v 17.832 c -0.17,12.028 5.127,23.483 14.4,31.144 26.553,21.332 41.88,53.645 41.6,87.704 -0.987,59.218 -47.422,107.682 -106.544,111.2 -61.76,3.017 -114.272,-44.604 -117.289,-106.364 -1.729,-35.414 13.417,-69.554 40.833,-92.036 z"
   id="path2"
   inkscape:connector-curvature="0"
   style="fill:#c0c0c0;fill-opacity:1" />
			<path
   d="m 240.001,432.003 c -4.418,0 -8,3.582 -8,8 v 32 c 0,4.418 3.582,8 8,8 4.418,0 8,-3.582 8,-8 v -32 c 0,-4.419 -3.581,-8 -8,-8 z"
   id="path4"
   inkscape:connector-curvature="0"
   style="fill:#c0c0c0;fill-opacity:1" />
			<path
   d="m 168.01,412.712 c -0.003,-0.002 -0.006,-0.004 -0.009,-0.005 -3.827,-2.207 -8.72,-0.894 -10.927,2.934 0,10e-4 -0.001,0.002 -0.001,0.002 l -16,27.704 c -2.234,3.812 -0.956,8.713 2.856,10.947 3.812,2.234 8.713,0.956 10.947,-2.856 0.018,-0.03 0.035,-0.061 0.053,-0.092 l 16,-27.704 c 2.213,-3.824 0.906,-8.718 -2.919,-10.93 z"
   id="path6"
   inkscape:connector-curvature="0"
   style="fill:#c0c0c0;fill-opacity:1" />
			<path
   d="m 104.455,357.021 c -0.031,0.018 -0.062,0.036 -0.093,0.054 l -27.704,16 c -3.841,2.183 -5.185,7.067 -3.002,10.908 2.183,3.841 7.067,5.185 10.908,3.002 0.031,-0.018 0.062,-0.036 0.093,-0.054 l 27.704,-16 c 3.841,-2.183 5.185,-7.067 3.002,-10.908 -2.183,-3.842 -7.067,-5.186 -10.908,-3.002 z"
   id="path8"
   inkscape:connector-curvature="0"
   style="fill:#c0c0c0;fill-opacity:1" />
			<path
   d="m 96.001,288.003 c 0,-4.418 -3.582,-8 -8,-8 h -32 c -4.418,0 -8,3.582 -8,8 0,4.418 3.582,8 8,8 h 32 c 4.419,0 8,-3.582 8,-8 z"
   id="path10"
   inkscape:connector-curvature="0"
   style="fill:#c0c0c0;fill-opacity:1" />
			<path
   d="m 76.566,202.878 c 0.03,0.018 0.061,0.035 0.092,0.053 l 27.704,16 c 3.812,2.234 8.713,0.956 10.947,-2.856 2.234,-3.812 0.956,-8.713 -2.856,-10.947 -0.03,-0.018 -0.061,-0.035 -0.092,-0.053 l -27.704,-16 c -3.812,-2.234 -8.713,-0.956 -10.947,2.856 -2.234,3.811 -0.956,8.712 2.856,10.947 z"
   id="path12"
   inkscape:connector-curvature="0"
   style="fill:#c0c0c0;fill-opacity:1" />
			<path
   d="m 371.649,220.003 c 1.404,0 2.784,-0.37 4,-1.072 l 27.704,-16 c 3.841,-2.184 5.184,-7.068 3,-10.909 -2.184,-3.841 -7.068,-5.184 -10.909,-3 -0.031,0.017 -0.061,0.035 -0.092,0.053 l -27.704,16 c -3.826,2.209 -5.137,7.102 -2.928,10.928 1.431,2.475 4.071,4 6.929,4 z"
   id="path14"
   inkscape:connector-curvature="0"
   style="fill:#c0c0c0;fill-opacity:1" />
			<path
   d="m 424.001,280.003 h -32 c -4.418,0 -8,3.582 -8,8 0,4.418 3.582,8 8,8 h 32 c 4.418,0 8,-3.582 8,-8 0,-4.418 -3.581,-8 -8,-8 z"
   id="path16"
   inkscape:connector-curvature="0"
   style="fill:#c0c0c0;fill-opacity:1" />
			<path
   d="m 403.439,373.128 c -0.031,-0.018 -0.062,-0.036 -0.093,-0.054 l -27.704,-16 c -3.811,-2.235 -8.713,-0.957 -10.948,2.854 -2.235,3.811 -0.957,8.713 2.854,10.948 0.031,0.018 0.062,0.036 0.093,0.054 l 27.704,16 c 3.811,2.235 8.713,0.957 10.948,-2.854 2.235,-3.811 0.957,-8.713 -2.854,-10.948 z"
   id="path18"
   inkscape:connector-curvature="0"
   style="fill:#c0c0c0;fill-opacity:1" />
			<path
   d="m 338.929,443.347 -16,-27.704 c -2.183,-3.841 -7.067,-5.185 -10.908,-3.002 -3.841,2.183 -5.185,7.067 -3.002,10.908 0.018,0.031 0.036,0.062 0.054,0.093 l 16,27.704 c 2.183,3.841 7.067,5.185 10.908,3.002 3.841,-2.183 5.185,-7.067 3.002,-10.908 -0.018,-0.031 -0.036,-0.062 -0.054,-0.093 z"
   id="path20"
   inkscape:connector-curvature="0"
   style="fill:#c0c0c0;fill-opacity:1" />
		</g>
	</g>
</g>
<g
   id="g28"
   transform="rotate(180,3.6132813e-7,480.00299)"
   style="fill:#c0c0c0;fill-opacity:1">
</g>
<g
   id="g30"
   transform="rotate(180,3.6132813e-7,480.00299)"
   style="fill:#c0c0c0;fill-opacity:1">
</g>
<g
   id="g32"
   transform="rotate(180,3.6132813e-7,480.00299)"
   style="fill:#c0c0c0;fill-opacity:1">
</g>
<g
   id="g34"
   transform="rotate(180,3.6132813e-7,480.00299)"
   style="fill:#c0c0c0;fill-opacity:1">
</g>
<g
   id="g36"
   transform="rotate(180,3.6132813e-7,480.00299)"
   style="fill:#c0c0c0;fill-opacity:1">
</g>
<g
   id="g38"
   transform="rotate(180,3.6132813e-7,480.00299)"
   style="fill:#c0c0c0;fill-opacity:1">
</g>
<g
   id="g40"
   transform="rotate(180,3.6132813e-7,480.00299)"
   style="fill:#c0c0c0;fill-opacity:1">
</g>
<g
   id="g42"
   transform="rotate(180,3.6132813e-7,480.00299)"
   style="fill:#c0c0c0;fill-opacity:1">
</g>
<g
   id="g44"
   transform="rotate(180,3.6132813e-7,480.00299)"
   style="fill:#c0c0c0;fill-opacity:1">
</g>
<g
   id="g46"
   transform="rotate(180,3.6132813e-7,480.00299)"
   style="fill:#c0c0c0;fill-opacity:1">
</g>
<g
   id="g48"
   transform="rotate(180,3.6132813e-7,480.00299)"
   style="fill:#c0c0c0;fill-opacity:1">
</g>
<g
   id="g50"
   transform="rotate(180,3.6132813e-7,480.00299)"
   style="fill:#c0c0c0;fill-opacity:1">
</g>
<g
   id="g52"
   transform="rotate(180,3.6132813e-7,480.00299)"
   style="fill:#c0c0c0;fill-opacity:1">
</g>
<g
   id="g54"
   transform="rotate(180,3.6132813e-7,480.00299)"
   style="fill:#c0c0c0;fill-opacity:1">
</g>
<g
   id="g56"
   transform="rotate(180,3.6132813e-7,480.00299)"
   style="fill:#c0c0c0;fill-opacity:1">
</g>
</svg>