<?xml version="1.0" encoding="UTF-8" standalone="no"?>
<!-- Generator: Adobe Illustrator 19.0.0, SVG Export Plug-In . SVG Version: 6.00 Build 0)  -->

<svg
   xmlns:dc="http://purl.org/dc/elements/1.1/"
   xmlns:cc="http://creativecommons.org/ns#"
   xmlns:rdf="http://www.w3.org/1999/02/22-rdf-syntax-ns#"
   xmlns:svg="http://www.w3.org/2000/svg"
   xmlns="http://www.w3.org/2000/svg"
   xmlns:sodipodi="http://sodipodi.sourceforge.net/DTD/sodipodi-0.dtd"
   xmlns:inkscape="http://www.inkscape.org/namespaces/inkscape"
   version="1.1"
   id="Layer_1"
   x="0px"
   y="0px"
   viewBox="0 0 512 512"
   style="enable-background:new 0 0 512 512;"
   xml:space="preserve"
   sodipodi:docname="Question-Grey.svg"
   inkscape:version="0.92.3 (2405546, 2018-03-11)"><metadata
   id="metadata49"><rdf:RDF><cc:Work
       rdf:about=""><dc:format>image/svg+xml</dc:format><dc:type
         rdf:resource="http://purl.org/dc/dcmitype/StillImage" /><dc:title></dc:title></cc:Work></rdf:RDF></metadata><defs
   id="defs47" /><sodipodi:namedview
   pagecolor="#ffffff"
   bordercolor="#666666"
   borderopacity="1"
   objecttolerance="10"
   gridtolerance="10"
   guidetolerance="10"
   inkscape:pageopacity="0"
   inkscape:pageshadow="2"
   inkscape:window-width="1920"
   inkscape:window-height="1012"
   id="namedview45"
   showgrid="false"
   inkscape:zoom="0.4609375"
   inkscape:cx="28.20339"
   inkscape:cy="256"
   inkscape:window-x="0"
   inkscape:window-y="0"
   inkscape:window-maximized="1"
   inkscape:current-layer="Layer_1" />
<g
   id="g6"
   style="fill:#c0c0c0;fill-opacity:1">
	<g
   id="g4"
   style="fill:#c0c0c0;fill-opacity:1">
		<path
   d="M256,417.959c-25.927,0-47.02,21.093-47.02,47.02c0,25.927,21.093,47.02,47.02,47.02s47.02-21.093,47.02-47.02    C303.02,439.053,281.927,417.959,256,417.959z M256,480.653c-8.642,0-15.673-7.031-15.673-15.673    c0-8.642,7.031-15.674,15.673-15.674c8.642,0,15.673,7.031,15.673,15.674C271.673,473.622,264.642,480.653,256,480.653z"
   id="path2"
   style="fill:#c0c0c0;fill-opacity:1" />
	</g>
</g>
<g
   id="g12"
   style="fill:#c0c0c0;fill-opacity:1">
	<g
   id="g10"
   style="fill:#c0c0c0;fill-opacity:1">
		<path
   d="M256,0c-85.271,0-154.645,69.374-154.645,154.645v15.673h94.041v-15.673c0-33.417,27.187-60.604,60.604-60.604    c33.417,0,60.604,27.187,60.604,60.604c0,16.188-6.304,31.406-17.75,42.853c-18.533,18.533-74.232,70.103-74.792,70.622    l-15.083,13.958v104.535h94.041V323.13c19.308-17.977,48.793-45.598,62.329-59.135c29.209-29.208,45.295-68.043,45.295-109.351    C410.645,69.374,341.271,0,256,0z M343.184,241.829c-14.956,14.956-51.494,49.036-66.509,62.996l-5.002,4.65v45.791h-31.347    v-59.487l5.028-4.654c0.565-0.522,56.709-52.505,75.665-71.462c17.367-17.366,26.931-40.457,26.931-65.018    c0-50.702-41.249-91.951-91.951-91.951c-45.361,0-83.155,33.015-90.615,76.278h-31.692C141.415,78.356,193.321,31.347,256,31.347    c67.986,0,123.298,55.312,123.298,123.298C379.298,187.58,366.473,218.542,343.184,241.829z"
   id="path8"
   style="fill:#c0c0c0;fill-opacity:1" />
	</g>
</g>
<g
   id="g14">
</g>
<g
   id="g16">
</g>
<g
   id="g18">
</g>
<g
   id="g20">
</g>
<g
   id="g22">
</g>
<g
   id="g24">
</g>
<g
   id="g26">
</g>
<g
   id="g28">
</g>
<g
   id="g30">
</g>
<g
   id="g32">
</g>
<g
   id="g34">
</g>
<g
   id="g36">
</g>
<g
   id="g38">
</g>
<g
   id="g40">
</g>
<g
   id="g42">
</g>
</svg>