<?xml version="1.0" encoding="UTF-8" standalone="no"?>
<!-- Created with Inkscape (http://www.inkscape.org/) -->

<svg
   xmlns:dc="http://purl.org/dc/elements/1.1/"
   xmlns:cc="http://creativecommons.org/ns#"
   xmlns:rdf="http://www.w3.org/1999/02/22-rdf-syntax-ns#"
   xmlns:svg="http://www.w3.org/2000/svg"
   xmlns="http://www.w3.org/2000/svg"
   xmlns:sodipodi="http://sodipodi.sourceforge.net/DTD/sodipodi-0.dtd"
   xmlns:inkscape="http://www.inkscape.org/namespaces/inkscape"
   width="230mm"
   height="50.037907mm"
   viewBox="0 0 230 50.037907"
   version="1.1"
   id="svg8"
   sodipodi:docname="rs01.svg"
   inkscape:version="0.92.3 (2405546, 2018-03-11)">
  <defs
     id="defs2" />
  <sodipodi:namedview
     id="base"
     pagecolor="#ffffff"
     bordercolor="#666666"
     borderopacity="1.0"
     inkscape:pageopacity="0.0"
     inkscape:pageshadow="2"
     inkscape:zoom="0.98994949"
     inkscape:cx="387.05757"
     inkscape:cy="133.99911"
     inkscape:document-units="mm"
     inkscape:current-layer="layer1"
     showgrid="false"
     inkscape:window-width="1920"
     inkscape:window-height="1009"
     inkscape:window-x="0"
     inkscape:window-y="0"
     inkscape:window-maximized="1" />
  <metadata
     id="metadata5">
    <rdf:RDF>
      <cc:Work
         rdf:about="">
        <dc:format>image/svg+xml</dc:format>
        <dc:type
           rdf:resource="http://purl.org/dc/dcmitype/StillImage" />
      </cc:Work>
    </rdf:RDF>
  </metadata>
  <g
     inkscape:label="Calque 1"
     inkscape:groupmode="layer"
     id="layer1"
     transform="translate(0,-246.9621)">
    <path
       style="opacity:1;fill:#202020;fill-opacity:1;stroke:none;stroke-width:0.6361475;stroke-linejoin:bevel;stroke-miterlimit:4;stroke-dasharray:none;stroke-dashoffset:0;stroke-opacity:1"
       d="M 226.66016 0 L 226.66016 113.47266 L 226.77148 113.47266 L 226.77148 113.5293 L 377.95508 113.5293 L 377.95508 151.92578 L 226.66016 151.92578 L 226.66016 189.11914 L 415.14844 189.11914 L 415.7793 189.11914 L 415.7793 75.648438 L 377.95508 75.648438 L 377.95508 75.734375 L 264.48438 75.734375 L 264.48438 37.939453 L 415.74805 37.939453 L 415.74805 0.14257812 L 264.48438 0.14257812 L 264.48438 0 L 226.66016 0 z "
       transform="matrix(0.26458333,0,0,0.26458333,0,246.9621)"
       id="rect815-5" />
    <path
       style="opacity:1;fill:#202020;fill-opacity:1;stroke:none;stroke-width:0.63614738;stroke-linejoin:bevel;stroke-miterlimit:4;stroke-dasharray:none;stroke-dashoffset:0;stroke-opacity:1"
       d="M 453.54297 0.14257812 L 453.54297 37.939453 L 453.54297 151.32422 L 453.54297 189.11914 L 491.33789 189.11914 L 642.51953 189.11914 L 642.51953 151.32422 L 642.51953 0.14257812 L 491.33789 0.14257812 L 453.54297 0.14257812 z M 491.33789 37.939453 L 604.72461 37.939453 L 604.72461 151.32422 L 491.33789 151.32422 L 491.33789 37.939453 z "
       id="rect815-4-9"
       transform="matrix(0.26458333,0,0,0.26458333,0,246.9621)" />
    <path
       style="opacity:1;fill:#202020;fill-opacity:1;stroke:none;stroke-width:0.63614738;stroke-linejoin:bevel;stroke-miterlimit:4;stroke-dasharray:none;stroke-dashoffset:0;stroke-opacity:1"
       d="M 831.49609 0.14257812 L 680.31445 75.734375 L 680.31445 113.5293 L 831.49609 37.939453 L 831.49609 189.11914 L 869.29102 189.11914 L 869.29102 0.14257812 L 831.49609 0.14257812 z "
       id="rect815-4-9-3-0"
       transform="matrix(0.26458333,0,0,0.26458333,0,246.9621)" />
    <path
       style="opacity:1;fill:#202020;fill-opacity:1;stroke:none;stroke-width:0.6361475;stroke-linejoin:bevel;stroke-miterlimit:4;stroke-dasharray:none;stroke-dashoffset:0;stroke-opacity:1"
       d="M 0 0.14257812 L 0 37.939453 L 0 75.734375 L 0 113.5293 L 0 189.11914 L 37.794922 189.11914 L 37.794922 113.5293 L 113.38672 113.5293 L 151.18164 189.11914 L 188.97656 189.11914 L 151.18164 113.5293 L 188.97656 113.5293 L 188.97656 75.734375 L 188.97656 37.939453 L 188.97656 0.14257812 L 151.18164 0.14257812 L 37.794922 0.14257812 L 0 0.14257812 z M 37.794922 37.939453 L 151.18164 37.939453 L 151.18164 75.734375 L 37.794922 75.734375 L 37.794922 37.939453 z "
       transform="matrix(0.26458333,0,0,0.26458333,0,246.9621)"
       id="rect815" />
  </g>
</svg>
