<?xml version="1.0" encoding="UTF-8" standalone="no"?>
<!-- Generator: Adobe Illustrator 19.0.0, SVG Export Plug-In . SVG Version: 6.00 Build 0)  -->

<svg
   xmlns:dc="http://purl.org/dc/elements/1.1/"
   xmlns:cc="http://creativecommons.org/ns#"
   xmlns:rdf="http://www.w3.org/1999/02/22-rdf-syntax-ns#"
   xmlns:svg="http://www.w3.org/2000/svg"
   xmlns="http://www.w3.org/2000/svg"
   xmlns:sodipodi="http://sodipodi.sourceforge.net/DTD/sodipodi-0.dtd"
   xmlns:inkscape="http://www.inkscape.org/namespaces/inkscape"
   version="1.1"
   id="Capa_1"
   x="0px"
   y="0px"
   viewBox="0 0 512 512"
   style="enable-background:new 0 0 512 512;"
   xml:space="preserve"
   sodipodi:docname="Zoom-out-Grey.svg"
   inkscape:version="0.92.3 (2405546, 2018-03-11)"><metadata
   id="metadata49"><rdf:RDF><cc:Work
       rdf:about=""><dc:format>image/svg+xml</dc:format><dc:type
         rdf:resource="http://purl.org/dc/dcmitype/StillImage" /><dc:title></dc:title></cc:Work></rdf:RDF></metadata><defs
   id="defs47" /><sodipodi:namedview
   pagecolor="#ffffff"
   bordercolor="#666666"
   borderopacity="1"
   objecttolerance="10"
   gridtolerance="10"
   guidetolerance="10"
   inkscape:pageopacity="0"
   inkscape:pageshadow="2"
   inkscape:window-width="1920"
   inkscape:window-height="1012"
   id="namedview45"
   showgrid="false"
   inkscape:zoom="0.4609375"
   inkscape:cx="28.20339"
   inkscape:cy="256"
   inkscape:window-x="0"
   inkscape:window-y="0"
   inkscape:window-maximized="1"
   inkscape:current-layer="Capa_1" />
<g
   id="g6"
   style="fill:#c0c0c0;fill-opacity:1">
	<g
   id="g4"
   style="fill:#c0c0c0;fill-opacity:1">
		<path
   d="M506.142,477.851L361.69,333.399c65.813-80.075,61.335-198.944-13.451-273.73h-0.001    c-79.558-79.559-209.011-79.558-288.569,0c-79.559,79.559-79.559,209.01,0,288.569c74.766,74.766,193.62,79.293,273.731,13.451    l144.452,144.452c7.814,7.813,20.478,7.811,28.29,0C513.953,498.329,513.953,485.663,506.142,477.851z M319.949,319.948    c-63.959,63.96-168.031,63.959-231.99,0c-63.96-63.96-63.96-168.03,0-231.99c63.958-63.958,168.029-63.961,231.99,0    C383.909,151.918,383.909,255.988,319.949,319.948z"
   id="path2"
   style="fill:#c0c0c0;fill-opacity:1" />
	</g>
</g>
<g
   id="g12"
   style="fill:#c0c0c0;fill-opacity:1">
	<g
   id="g10"
   style="fill:#c0c0c0;fill-opacity:1">
		<path
   d="M301.897,183.95H106.01c-11.048,0-20.004,8.956-20.004,20.004c0,11.048,8.956,20.004,20.004,20.004h195.887    c11.048,0,20.004-8.956,20.004-20.004C321.901,192.906,312.945,183.95,301.897,183.95z"
   id="path8"
   style="fill:#c0c0c0;fill-opacity:1" />
	</g>
</g>
<g
   id="g14"
   style="fill:#c0c0c0;fill-opacity:1">
</g>
<g
   id="g16"
   style="fill:#c0c0c0;fill-opacity:1">
</g>
<g
   id="g18"
   style="fill:#c0c0c0;fill-opacity:1">
</g>
<g
   id="g20"
   style="fill:#c0c0c0;fill-opacity:1">
</g>
<g
   id="g22"
   style="fill:#c0c0c0;fill-opacity:1">
</g>
<g
   id="g24"
   style="fill:#c0c0c0;fill-opacity:1">
</g>
<g
   id="g26"
   style="fill:#c0c0c0;fill-opacity:1">
</g>
<g
   id="g28"
   style="fill:#c0c0c0;fill-opacity:1">
</g>
<g
   id="g30"
   style="fill:#c0c0c0;fill-opacity:1">
</g>
<g
   id="g32"
   style="fill:#c0c0c0;fill-opacity:1">
</g>
<g
   id="g34"
   style="fill:#c0c0c0;fill-opacity:1">
</g>
<g
   id="g36"
   style="fill:#c0c0c0;fill-opacity:1">
</g>
<g
   id="g38"
   style="fill:#c0c0c0;fill-opacity:1">
</g>
<g
   id="g40"
   style="fill:#c0c0c0;fill-opacity:1">
</g>
<g
   id="g42"
   style="fill:#c0c0c0;fill-opacity:1">
</g>
</svg>