<?xml version="1.0" encoding="UTF-8" standalone="no"?>
<!-- Generator: Adobe Illustrator 19.0.0, SVG Export Plug-In . SVG Version: 6.00 Build 0)  -->

<svg
   xmlns:dc="http://purl.org/dc/elements/1.1/"
   xmlns:cc="http://creativecommons.org/ns#"
   xmlns:rdf="http://www.w3.org/1999/02/22-rdf-syntax-ns#"
   xmlns:svg="http://www.w3.org/2000/svg"
   xmlns="http://www.w3.org/2000/svg"
   xmlns:sodipodi="http://sodipodi.sourceforge.net/DTD/sodipodi-0.dtd"
   xmlns:inkscape="http://www.inkscape.org/namespaces/inkscape"
   version="1.1"
   id="Capa_1"
   x="0px"
   y="0px"
   viewBox="0 0 512 512"
   style="enable-background:new 0 0 512 512;"
   xml:space="preserve"
   sodipodi:docname="Zoom-in-Grey.svg"
   inkscape:version="0.92.3 (2405546, 2018-03-11)"><metadata
   id="metadata49"><rdf:RDF><cc:Work
       rdf:about=""><dc:format>image/svg+xml</dc:format><dc:type
         rdf:resource="http://purl.org/dc/dcmitype/StillImage" /><dc:title></dc:title></cc:Work></rdf:RDF></metadata><defs
   id="defs47" /><sodipodi:namedview
   pagecolor="#ffffff"
   bordercolor="#666666"
   borderopacity="1"
   objecttolerance="10"
   gridtolerance="10"
   guidetolerance="10"
   inkscape:pageopacity="0"
   inkscape:pageshadow="2"
   inkscape:window-width="1920"
   inkscape:window-height="1012"
   id="namedview45"
   showgrid="false"
   inkscape:zoom="0.4609375"
   inkscape:cx="28.20339"
   inkscape:cy="256"
   inkscape:window-x="0"
   inkscape:window-y="0"
   inkscape:window-maximized="1"
   inkscape:current-layer="Capa_1" />
<g
   id="g6"
   style="fill:#c0c0c0;fill-opacity:1">
	<g
   id="g4"
   style="fill:#c0c0c0;fill-opacity:1">
		<path
   d="M506.141,477.851L361.689,333.399c65.814-80.075,61.336-198.944-13.451-273.73c-79.559-79.559-209.01-79.559-288.569,0    s-79.559,209.01,0,288.569c74.766,74.766,193.62,79.293,273.73,13.451l144.452,144.452c7.812,7.812,20.477,7.812,28.289,0    C513.953,498.328,513.953,485.663,506.141,477.851z M319.949,319.948c-63.96,63.96-168.03,63.959-231.99,0    c-63.96-63.96-63.96-168.03,0-231.99c63.958-63.957,168.028-63.962,231.99,0C383.909,151.918,383.909,255.988,319.949,319.948z"
   id="path2"
   style="fill:#c0c0c0;fill-opacity:1" />
	</g>
</g>
<g
   id="g12"
   style="fill:#c0c0c0;fill-opacity:1">
	<g
   id="g10"
   style="fill:#c0c0c0;fill-opacity:1">
		<path
   d="M301.897,183.949h-77.94v-77.94c0-11.048-8.956-20.004-20.004-20.004c-11.048,0-20.004,8.956-20.004,20.004v77.94h-77.94    c-11.048,0-20.004,8.956-20.004,20.004c0,11.048,8.956,20.004,20.004,20.004h77.94v77.94c0,11.048,8.956,20.004,20.004,20.004    c11.048,0,20.004-8.956,20.004-20.004v-77.94h77.94c11.048,0,20.004-8.956,20.004-20.004    C321.901,192.905,312.945,183.949,301.897,183.949z"
   id="path8"
   style="fill:#c0c0c0;fill-opacity:1" />
	</g>
</g>
<g
   id="g14"
   style="fill:#c0c0c0;fill-opacity:1">
</g>
<g
   id="g16"
   style="fill:#c0c0c0;fill-opacity:1">
</g>
<g
   id="g18"
   style="fill:#c0c0c0;fill-opacity:1">
</g>
<g
   id="g20"
   style="fill:#c0c0c0;fill-opacity:1">
</g>
<g
   id="g22"
   style="fill:#c0c0c0;fill-opacity:1">
</g>
<g
   id="g24"
   style="fill:#c0c0c0;fill-opacity:1">
</g>
<g
   id="g26"
   style="fill:#c0c0c0;fill-opacity:1">
</g>
<g
   id="g28"
   style="fill:#c0c0c0;fill-opacity:1">
</g>
<g
   id="g30"
   style="fill:#c0c0c0;fill-opacity:1">
</g>
<g
   id="g32"
   style="fill:#c0c0c0;fill-opacity:1">
</g>
<g
   id="g34"
   style="fill:#c0c0c0;fill-opacity:1">
</g>
<g
   id="g36"
   style="fill:#c0c0c0;fill-opacity:1">
</g>
<g
   id="g38"
   style="fill:#c0c0c0;fill-opacity:1">
</g>
<g
   id="g40"
   style="fill:#c0c0c0;fill-opacity:1">
</g>
<g
   id="g42"
   style="fill:#c0c0c0;fill-opacity:1">
</g>
</svg>